<svg width="1426" height="950" viewBox="0 0 1426 950" fill="none" xmlns="http://www.w3.org/2000/svg" xmlns:xlink="http://www.w3.org/1999/xlink">
  <mask id="svgmask1">

<path d="M917.749 90.3549H520.251C475.166 90.3549 433.506 110.021 410.964 141.945L212.214 423.41C189.672 455.335 189.672 494.666 212.214 526.59L410.964 808.055C433.506 839.98 475.166 859.645 520.251 859.645H917.749C962.835 859.645 1004.49 839.98 1027.04 808.055L1225.79 526.59C1248.33 494.666 1248.33 455.335 1225.79 423.41L1027.04 141.945C1004.49 110.021 962.835 90.3549 917.749 90.3549Z" fill="#433292"/>
<path d="M1077.06 6.23145H657.555C609.974 6.23145 566.007 30.1978 542.216 69.1043L332.462 412.127C308.672 451.034 308.672 498.967 332.462 537.873L542.216 880.896C566.007 919.803 609.974 943.769 657.555 943.769H1077.06C1124.65 943.769 1168.61 919.803 1192.4 880.896L1402.16 537.873C1425.95 498.967 1425.95 451.034 1402.16 412.127L1192.4 69.1043C1168.61 30.1978 1124.65 6.23145 1077.06 6.23145Z" fill="#BDBDBD"/>
<rect x="-0.000976562" y="-13.3453" width="1629.88" height="963.345" fill="url(#pattern0)"/>
<g style="mix-blend-mode:multiply">
<path d="M519.579 139.673H237C204.95 139.673 175.334 156.817 159.308 184.648L18.0187 430.025C1.99375 457.856 1.99375 492.144 18.0187 519.975L159.308 765.352C175.334 793.184 204.95 810.327 237 810.327H519.579C551.63 810.327 581.246 793.184 597.272 765.352L738.561 519.975C754.586 492.144 754.586 457.856 738.561 430.025L597.272 184.648C581.246 156.817 551.63 139.673 519.579 139.673Z" fill="#61C0CD"/>
</g>
</mask>
  <image xmlns:xlink="http://www.w3.org/1999/xlink" xlink:href="/imgs/i.jpg" mask="url('/imgs/i.jpg')"></image>
<defs>
<pattern id="pattern0" patternContentUnits="objectBoundingBox" width="1" height="1">
<use xlink:href="#image0_1_111" transform="matrix(-0.000244141 0 0 0.000413121 0 -0.0639102)"/>
</pattern>
 
</defs>
</svg>
